<?xml version="1.0" encoding="utf-8"?>
<!-- Generator: Adobe Illustrator 16.0.4, SVG Export Plug-In . SVG Version: 6.00 Build 0)  -->
<!DOCTYPE svg PUBLIC "-//W3C//DTD SVG 1.1//EN" "http://www.w3.org/Graphics/SVG/1.1/DTD/svg11.dtd">
<svg version="1.1" id="Capa_1" xmlns="http://www.w3.org/2000/svg" xmlns:xlink="http://www.w3.org/1999/xlink" x="0px" y="0px"
	 width="45.6px" height="45.6px" viewBox="0 0 45.6 45.6" enable-background="new 0 0 45.6 45.6" xml:space="preserve">
<g>
	<path d="M22.799,0C10.229,0,0,10.228,0,22.799c0,12.572,10.229,22.8,22.799,22.8c12.572,0,22.8-10.228,22.801-22.8
		C45.6,10.229,35.371,0,22.799,0z M22.799,41.452c-10.284,0-18.653-8.368-18.653-18.654c0-10.283,8.369-18.652,18.653-18.652
		c10.287,0,18.654,8.368,18.654,18.652C41.453,33.083,33.086,41.452,22.799,41.452z"/>
	<polygon points="24.873,14.51 20.727,14.51 20.727,20.726 14.509,20.726 14.509,24.872 20.727,24.872 20.727,31.092 24.873,31.092 
		24.873,24.872 31.09,24.872 31.09,20.726 24.873,20.726 	"/>
</g>
</svg>
