<?xml version="1.0" encoding="utf-8"?>
<!-- Generator: Adobe Illustrator 16.0.4, SVG Export Plug-In . SVG Version: 6.00 Build 0)  -->
<!DOCTYPE svg PUBLIC "-//W3C//DTD SVG 1.1//EN" "http://www.w3.org/Graphics/SVG/1.1/DTD/svg11.dtd">
<svg version="1.1" id="Capa_1" xmlns="http://www.w3.org/2000/svg" xmlns:xlink="http://www.w3.org/1999/xlink" x="0px" y="0px"
	 width="44.883px" height="36.053px" viewBox="0 0 44.883 36.053" enable-background="new 0 0 44.883 36.053" xml:space="preserve">
<path d="M43.611,6.937l-5.707-5.708c-1.605-1.604-4.371-1.644-5.939-0.078l-13.189,13.19L12.915,8.48
	c-1.569-1.566-4.334-1.533-5.941,0.077l-5.709,5.709c-1.658,1.659-1.691,4.323-0.076,5.939l14.579,14.577
	c0.817,0.817,1.898,1.271,3.042,1.271c1.1,0,2.129-0.423,2.898-1.192l21.981-21.982c0.769-0.771,1.191-1.797,1.191-2.9
	C44.882,8.833,44.43,7.753,43.611,6.937z M18.813,31.907l-0.005,0.001L11.447,24.6l-7.25-7.406l5.787-5.782l7.328,7.329
	c0.778,0.774,2.154,0.774,2.931,0L34.977,4.16l5.785,5.783L18.813,31.907z"/>
</svg>
