<?xml version="1.0" encoding="utf-8"?>
<!-- Generator: Adobe Illustrator 16.0.4, SVG Export Plug-In . SVG Version: 6.00 Build 0)  -->
<!DOCTYPE svg PUBLIC "-//W3C//DTD SVG 1.1//EN" "http://www.w3.org/Graphics/SVG/1.1/DTD/svg11.dtd">
<svg version="1.1" id="Capa_1" xmlns="http://www.w3.org/2000/svg" xmlns:xlink="http://www.w3.org/1999/xlink" x="0px" y="0px"
	 width="48.497px" height="43.375px" viewBox="0 0 48.497 43.375" enable-background="new 0 0 48.497 43.375" xml:space="preserve">
<g>
	<path d="M30.805,0.223c-0.696-0.351-1.533-0.286-2.162,0.178L13.722,11.324H4.255c-1.117,0-2.172,0.417-2.976,1.18
		C0.454,13.292,0,14.345,0,15.47v12.437c0,1.125,0.454,2.177,1.282,2.968c0.8,0.76,1.856,1.176,2.972,1.176h9.467l14.921,10.924
		c0.362,0.267,0.793,0.4,1.226,0.4c0.319,0,0.641-0.074,0.938-0.225c0.694-0.354,1.135-1.066,1.135-1.849V2.072
		C31.94,1.291,31.5,0.577,30.805,0.223z M27.795,37.217l-12.171-8.91c-0.355-0.261-0.785-0.398-1.225-0.398H4.145V21.69l0.109-6.219
		V15.47h10.145c0.44,0,0.87-0.138,1.225-0.401L27.795,6.16V37.217z"/>
	<rect x="36.061" y="11.324" width="4.146" height="20.727"/>
	<rect x="44.352" y="7.179" width="4.145" height="29.018"/>
</g>
</svg>
