<?xml version="1.0" encoding="utf-8"?>
<!-- Generator: Adobe Illustrator 16.0.4, SVG Export Plug-In . SVG Version: 6.00 Build 0)  -->
<!DOCTYPE svg PUBLIC "-//W3C//DTD SVG 1.1//EN" "http://www.w3.org/Graphics/SVG/1.1/DTD/svg11.dtd">
<svg version="1.1" id="Capa_1" xmlns="http://www.w3.org/2000/svg" xmlns:xlink="http://www.w3.org/1999/xlink" x="0px" y="0px"
	 width="53.779px" height="51.023px" viewBox="0 0 53.779 51.023" enable-background="new 0 0 53.779 51.023" xml:space="preserve">
<g>
	<path d="M49.525,17.219h-3.927v-2.072c0-2.286-1.908-4.145-4.254-4.145H4.254C1.909,11.002,0,12.862,0,15.147v20.728
		c0,2.285,1.909,4.146,4.254,4.146h37.094c2.346,0,4.255-1.857,4.254-4.145v-2.074h3.927c2.347,0,4.255-1.859,4.254-4.146v-8.287
		C53.779,19.078,51.872,17.219,49.525,17.219z M41.344,35.873H4.145l0.108-20.726v-0.001h37.2l0.01,20.688
		C41.464,35.83,41.43,35.873,41.344,35.873z M49.525,29.654h-3.927v-8.289h4.032L49.525,29.654z"/>
	<rect x="8.291" y="19.334" width="4.146" height="12.437"/>
	<rect x="16.581" y="19.334" width="4.146" height="12.437"/>
</g>
</svg>
