<?xml version="1.0" encoding="utf-8"?>
<!-- Generator: Adobe Illustrator 16.0.4, SVG Export Plug-In . SVG Version: 6.00 Build 0)  -->
<!DOCTYPE svg PUBLIC "-//W3C//DTD SVG 1.1//EN" "http://www.w3.org/Graphics/SVG/1.1/DTD/svg11.dtd">
<svg version="1.1" id="Capa_1" xmlns="http://www.w3.org/2000/svg" xmlns:xlink="http://www.w3.org/1999/xlink" x="0px" y="0px"
	 width="45.6px" height="45.6px" viewBox="0 0 45.6 45.6" enable-background="new 0 0 45.6 45.6" xml:space="preserve">
<g>
	<path d="M22.799,0C10.228,0,0,10.229,0,22.8s10.228,22.799,22.799,22.799s22.8-10.227,22.8-22.799S35.37,0,22.799,0z
		 M22.799,41.453c-10.285,0-18.652-8.369-18.652-18.654c0-10.284,8.367-18.653,18.652-18.653c10.286,0,18.654,8.368,18.654,18.653
		S33.085,41.453,22.799,41.453z"/>
	<polygon points="24.873,14.51 20.727,14.51 20.727,22.8 20.727,26.946 20.727,26.947 24.873,26.947 24.873,26.946 31.089,26.946 
		31.089,22.8 24.873,22.8 	"/>
</g>
</svg>
