<?xml version="1.0" encoding="utf-8"?>
<!-- Generator: Adobe Illustrator 16.0.4, SVG Export Plug-In . SVG Version: 6.00 Build 0)  -->
<!DOCTYPE svg PUBLIC "-//W3C//DTD SVG 1.1//EN" "http://www.w3.org/Graphics/SVG/1.1/DTD/svg11.dtd">
<svg version="1.1" id="Capa_1" xmlns="http://www.w3.org/2000/svg" xmlns:xlink="http://www.w3.org/1999/xlink" x="0px" y="0px"
	 width="45.6px" height="45.6px" viewBox="0 0 45.6 45.6" enable-background="new 0 0 45.6 45.6" xml:space="preserve">
<g>
	<path d="M22.8,0C10.229,0,0,10.229,0,22.8s10.229,22.799,22.8,22.799S45.6,35.371,45.6,22.8S35.371,0,22.8,0z M22.8,41.453
		c-10.285,0-18.652-8.369-18.652-18.654c0-10.284,8.367-18.653,18.652-18.653c10.286,0,18.654,8.368,18.654,18.653
		S33.086,41.453,22.8,41.453z"/>
	<polygon points="27.195,24.266 30.86,14.74 21.335,18.402 	"/>
	<polygon points="14.74,30.861 24.266,27.197 18.4,21.333 	"/>
</g>
</svg>
