<?xml version="1.0" encoding="utf-8"?>
<!-- Generator: Adobe Illustrator 16.0.4, SVG Export Plug-In . SVG Version: 6.00 Build 0)  -->
<!DOCTYPE svg PUBLIC "-//W3C//DTD SVG 1.1//EN" "http://www.w3.org/Graphics/SVG/1.1/DTD/svg11.dtd">
<svg version="1.1" id="Capa_1" xmlns="http://www.w3.org/2000/svg" xmlns:xlink="http://www.w3.org/1999/xlink" x="0px" y="0px"
	 width="45.6px" height="51.816px" viewBox="0 0 45.6 51.816" enable-background="new 0 0 45.6 51.816" xml:space="preserve">
<g>
	<path d="M41.454,0H4.146C1.859,0,0,1.859,0,4.146v29.017c0,2.286,1.857,4.146,4.146,4.146h37.31c2.286,0,4.145-1.86,4.146-4.146
		V4.146C45.6,1.859,43.74,0,41.454,0z M4.146,33.165V4.146h37.31l0.003,29.019H4.146z"/>
	<polygon points="30.055,41.453 15.545,41.453 15.545,47.671 8.465,47.671 8.465,49.744 8.465,51.817 22.974,51.817 37.482,51.817 
		37.482,49.744 37.482,47.671 30.055,47.671 	"/>
</g>
</svg>
