<?xml version="1.0" encoding="utf-8"?>
<!-- Generator: Adobe Illustrator 16.0.4, SVG Export Plug-In . SVG Version: 6.00 Build 0)  -->
<!DOCTYPE svg PUBLIC "-//W3C//DTD SVG 1.1//EN" "http://www.w3.org/Graphics/SVG/1.1/DTD/svg11.dtd">
<svg version="1.1" id="Capa_1" xmlns="http://www.w3.org/2000/svg" xmlns:xlink="http://www.w3.org/1999/xlink" x="0px" y="0px"
	 width="45.598px" height="45.6px" viewBox="0 0 45.598 45.6" enable-background="new 0 0 45.598 45.6" xml:space="preserve">
<path fill="#272425" d="M44.803,16.906c-0.233-0.873-1.003-1.494-1.905-1.536c-0.905-0.068-1.727,0.504-2.042,1.348
	c-1.351,3.639-4.857,6.081-8.729,6.081c-5.145,0-9.327-4.183-9.327-9.326c0-3.87,2.444-7.381,6.083-8.731
	c0.846-0.315,1.39-1.141,1.348-2.042c-0.043-0.9-0.665-1.67-1.536-1.903C26.716,0.268,24.734,0,22.799,0C10.227,0,0,10.228,0,22.8
	c0,12.57,10.227,22.8,22.799,22.8c12.571,0,22.799-10.229,22.798-22.801C45.597,20.863,45.33,18.88,44.803,16.906z M22.799,41.454
	c-10.285,0-18.654-8.368-18.654-18.654c0-10.16,8.166-18.451,18.282-18.65c-2.364,2.461-3.774,5.789-3.774,9.323
	c0,7.429,6.045,13.473,13.475,13.473c3.535,0,6.86-1.408,9.323-3.771C41.25,33.289,32.96,41.454,22.799,41.454z"/>
</svg>
