<?xml version="1.0" encoding="utf-8"?>
<!-- Generator: Adobe Illustrator 16.0.4, SVG Export Plug-In . SVG Version: 6.00 Build 0)  -->
<!DOCTYPE svg PUBLIC "-//W3C//DTD SVG 1.1//EN" "http://www.w3.org/Graphics/SVG/1.1/DTD/svg11.dtd">
<svg version="1.1" id="Capa_1" xmlns="http://www.w3.org/2000/svg" xmlns:xlink="http://www.w3.org/1999/xlink" x="0px" y="0px"
	 width="47.223px" height="47.084px" viewBox="0 0 47.223 47.084" enable-background="new 0 0 47.223 47.084" xml:space="preserve">
<path d="M46.033,34.169L35.3,23.437l10.588-10.51c0.788-0.785,1.222-1.883,1.194-3.012c-0.03-1.1-0.481-2.142-1.271-2.931
	l-5.707-5.708c-0.789-0.791-1.83-1.24-3.041-1.27c-1.102,0-2.132,0.423-2.884,1.174c0,0-5.985,5.849-10.645,10.484L13.067,1.203
	c-0.764-0.775-1.885-1.256-3.011-1.199C8.961,0.033,7.922,0.481,7.122,1.273L1.41,6.985C0.62,7.778,0.171,8.821,0.148,9.906
	c-0.035,1.141,0.392,2.212,1.209,3.034c0.003,0.001,5.234,5.092,10.61,10.446L1.193,34.162c-0.792,0.787-1.224,1.889-1.189,3.004
	c0.022,1.101,0.475,2.146,1.267,2.938l5.71,5.713c0.792,0.787,1.833,1.238,3.041,1.266c1.102,0,2.128-0.421,2.897-1.191
	l10.616-10.617l10.771,10.617c0.771,0.771,1.798,1.192,2.9,1.192c0.018,0,0.092,0,0.106,0c1.103-0.03,2.144-0.479,2.933-1.269
	l5.705-5.705c0.785-0.784,1.238-1.824,1.271-2.941C47.249,36.026,46.825,34.96,46.033,34.169z M37.312,42.885
	c-0.042,0.042-0.082,0.054-0.099,0.054L24.978,30.878c-0.401-0.4-0.931-0.598-1.456-0.598c-0.528,0-1.061,0.201-1.466,0.607
	L9.907,42.882l-5.785-5.783l12.245-12.248c0.81-0.811,0.81-2.121,0-2.931C10.496,16.048,4.248,9.969,4.345,9.912l5.784-5.785
	l11.935,11.932c0.812,0.81,2.121,0.81,2.934,0c4.72-4.72,12.019-11.852,12.175-11.852c0.001,0,0.001,0,0.001,0l5.791,5.778
	L30.903,21.958c-0.389,0.389-0.609,0.918-0.609,1.468c-0.001,0.554,0.216,1.08,0.604,1.472L43.02,37.177L37.312,42.885z"/>
</svg>
