<?xml version="1.0" encoding="utf-8"?>
<!-- Generator: Adobe Illustrator 16.0.4, SVG Export Plug-In . SVG Version: 6.00 Build 0)  -->
<!DOCTYPE svg PUBLIC "-//W3C//DTD SVG 1.1//EN" "http://www.w3.org/Graphics/SVG/1.1/DTD/svg11.dtd">
<svg version="1.1" id="Capa_1" xmlns="http://www.w3.org/2000/svg" xmlns:xlink="http://www.w3.org/1999/xlink" x="0px" y="0px"
	 width="45.6px" height="47.672px" viewBox="0 0 45.6 47.672" enable-background="new 0 0 45.6 47.672" xml:space="preserve">
<g>
	<polygon points="22.8,37.309 31.09,27.98 24.873,27.98 24.873,0 20.727,0 20.727,27.98 14.509,27.98 	"/>
	<path d="M45.247,16.999c-0.225-0.497-0.539-0.94-0.933-1.309c-0.386-0.369-0.838-0.66-1.347-0.866
		c-0.517-0.209-1.063-0.314-1.625-0.314h-9.272v4.145h9.383V42.49l-0.108,1.037H4.146l0.109-24.87h9.271v-4.146H4.254
		c-0.563,0-1.109,0.105-1.63,0.315c-0.504,0.204-0.956,0.495-1.335,0.857c-0.398,0.376-0.713,0.819-0.942,1.33
		C0.116,17.534,0,18.087,0,18.655v24.873c0,0.568,0.116,1.121,0.353,1.656c0.224,0.498,0.538,0.94,0.932,1.311
		c0.387,0.367,0.838,0.658,1.347,0.863c0.517,0.209,1.062,0.314,1.625,0.314h37.089c0.563,0,1.11-0.105,1.633-0.314
		c0.503-0.205,0.955-0.496,1.334-0.855c0.398-0.376,0.713-0.818,0.942-1.33c0.229-0.521,0.347-1.074,0.347-1.645V18.655
		C45.6,18.086,45.482,17.534,45.247,16.999z"/>
</g>
</svg>
