<?xml version="1.0" encoding="utf-8"?>
<!-- Generator: Adobe Illustrator 16.0.4, SVG Export Plug-In . SVG Version: 6.00 Build 0)  -->
<!DOCTYPE svg PUBLIC "-//W3C//DTD SVG 1.1//EN" "http://www.w3.org/Graphics/SVG/1.1/DTD/svg11.dtd">
<svg version="1.1" id="Capa_1" xmlns="http://www.w3.org/2000/svg" xmlns:xlink="http://www.w3.org/1999/xlink" x="0px" y="0px"
	 width="31.42px" height="47.588px" viewBox="0 0 31.42 47.588" enable-background="new 0 0 31.42 47.588" xml:space="preserve">
<path d="M17.177,0.606C16.788,0.218,16.263,0,15.711,0c-0.551,0-1.076,0.218-1.465,0.606C-0.62,15.47-0.084,28.304,0.032,29.788
	c0.051,8.423,6.739,17.8,15.679,17.8c8.644,0,15.675-7.032,15.666-15.489C31.437,31.451,32.636,16.066,17.177,0.606z M27.24,31.914
	c0,6.356-5.173,11.528-11.529,11.528c-6.388,0-11.533-7.521-11.533-13.75c0-0.064-0.005-0.144-0.01-0.207
	c-0.011-0.114-0.89-11.133,11.538-24.427C28.188,18.549,27.258,31.604,27.24,31.914z"/>
</svg>
