<?xml version="1.0" encoding="utf-8"?>
<!-- Generator: Adobe Illustrator 16.0.4, SVG Export Plug-In . SVG Version: 6.00 Build 0)  -->
<!DOCTYPE svg PUBLIC "-//W3C//DTD SVG 1.1//EN" "http://www.w3.org/Graphics/SVG/1.1/DTD/svg11.dtd">
<svg version="1.1" id="Capa_1" xmlns="http://www.w3.org/2000/svg" xmlns:xlink="http://www.w3.org/1999/xlink" x="0px" y="0px"
	 width="45.49px" height="43.525px" viewBox="0 0 45.49 43.525" enable-background="new 0 0 45.49 43.525" xml:space="preserve">
<g>
	<path d="M41.235,0c-0.153,0-0.305,0.019-0.455,0.05L22.746,4.106L4.71,0.05C4.561,0.017,4.408,0,4.255,0C1.869,0,0,2.163,0,4.922
		v29.536c0,2.655,1.729,4.756,3.983,4.913l18.252,4.105c0.151,0.032,0.303,0.05,0.455,0.05c0.018,0,0.036-0.004,0.054-0.005
		c0.019,0.001,0.036,0.005,0.055,0.005c0.152,0,0.305-0.018,0.455-0.051l18.253-4.104c2.254-0.157,3.982-2.259,3.982-4.913V4.922
		C45.489,2.163,43.62,0,41.235,0z M20.618,38.862L4.71,35.287c-0.066-0.017-0.101-0.02-0.133-0.02c-0.041,0-0.076,0.007-0.162,0.006
		c-0.072-0.05-0.269-0.336-0.269-0.815V4.922c0-0.36,0.112-0.611,0.129-0.72l16.343,3.675V38.862z M41.345,34.458
		c0,0.479-0.197,0.766-0.109,0.776c-0.152,0-0.305,0.018-0.455,0.052l-15.907,3.575V7.877l16.292-3.664
		c0.083,0.131,0.182,0.372,0.182,0.709v29.536H41.345z"/>
	<polygon points="16.582,12.177 8.291,10.104 8.291,14.25 16.582,16.322 	"/>
	<polygon points="16.582,20.468 8.291,18.395 8.291,22.54 16.582,24.613 	"/>
	<polygon points="16.582,28.758 8.291,26.686 8.291,30.831 16.582,32.904 	"/>
	<polygon points="28.963,16.322 37.253,14.25 37.253,10.104 28.963,12.177 	"/>
	<polygon points="28.963,24.613 37.253,22.54 37.253,18.395 28.963,20.468 	"/>
	<polygon points="28.963,32.904 37.253,30.831 37.253,26.686 28.963,28.758 	"/>
</g>
</svg>
