<?xml version="1.0" encoding="utf-8"?>
<!-- Generator: Adobe Illustrator 16.0.4, SVG Export Plug-In . SVG Version: 6.00 Build 0)  -->
<!DOCTYPE svg PUBLIC "-//W3C//DTD SVG 1.1//EN" "http://www.w3.org/Graphics/SVG/1.1/DTD/svg11.dtd">
<svg version="1.1" id="Capa_1" xmlns="http://www.w3.org/2000/svg" xmlns:xlink="http://www.w3.org/1999/xlink" x="0px" y="0px"
	 width="45.6px" height="41.682px" viewBox="0 0 45.6 41.682" enable-background="new 0 0 45.6 41.682" xml:space="preserve">
<path d="M45.587,12.365C45.544,5.541,39.99,0,33.171,0c-4.33,0-8.15,2.232-10.371,5.615C20.58,2.234,16.758,0,12.429,0
	C5.609,0,0.055,5.541,0.012,12.365C-0.08,13.881-0.176,26.688,21.5,41.212c0.37,0.295,0.838,0.469,1.328,0.469
	c0.552,0,1.065-0.219,1.444-0.587C45.775,26.617,45.681,13.878,45.587,12.365z M22.797,37.084C3.54,23.793,4.141,12.74,4.147,12.651
	c0.007-0.066,0.013-0.138,0.013-0.208c0-4.572,3.709-8.297,8.271-8.297c4.557,0,8.265,3.724,8.266,8.298
	c0,1.156,0.925,2.053,2.105,2.072c1.14-0.008,2.104-0.916,2.104-2.072c0-4.572,3.708-8.297,8.269-8.297
	c4.559,0,8.269,3.723,8.279,8.479C41.457,12.738,42.062,23.792,22.797,37.084z"/>
</svg>
