<?xml version="1.0" encoding="utf-8"?>
<!-- Generator: Adobe Illustrator 16.0.4, SVG Export Plug-In . SVG Version: 6.00 Build 0)  -->
<!DOCTYPE svg PUBLIC "-//W3C//DTD SVG 1.1//EN" "http://www.w3.org/Graphics/SVG/1.1/DTD/svg11.dtd">
<svg version="1.1" id="Capa_1" xmlns="http://www.w3.org/2000/svg" xmlns:xlink="http://www.w3.org/1999/xlink" x="0px" y="0px"
	 width="47.839px" height="47.838px" viewBox="0 0 47.839 47.838" enable-background="new 0 0 47.839 47.838" xml:space="preserve">
<path d="M25.751,32.347c1.617,1.614,1.582,4.279-0.076,5.938l-8.285,8.28c-0.814,0.816-1.894,1.271-3.037,1.271c0,0-0.001,0-0.002,0
	c-1.101,0-2.13-0.421-2.899-1.19L1.193,36.39C0.423,35.619-0.002,34.587,0,33.485c0-1.144,0.452-2.221,1.272-3.037l8.281-8.282
	c0.819-0.822,1.807-1.288,3.043-1.27c1.102,0,2.131,0.426,2.898,1.194L4.201,33.38l10.181,10.335L25.751,32.347z M15.365,29.544
	l2.931,2.93l13.441-13.44l-2.932-2.931L15.365,29.544z M46.645,11.451L36.387,1.192C35.619,0.424,34.589,0,33.488,0
	c-0.001,0-0.002,0-0.002,0c-1.142,0-2.222,0.452-3.035,1.271l-8.286,8.282c-1.659,1.657-1.693,4.324-0.077,5.938L33.457,4.124
	L43.64,14.458L32.346,25.749c0.767,0.77,1.796,1.193,2.897,1.193c0.002,0,0.002,0,0.004,0c1.141,0,2.221-0.448,3.037-1.271
	l8.277-8.283c0.814-0.818,1.271-1.895,1.271-3.038C47.839,13.253,47.416,12.221,46.645,11.451z"/>
</svg>
