<?xml version="1.0" encoding="utf-8"?>
<!-- Generator: Adobe Illustrator 16.0.4, SVG Export Plug-In . SVG Version: 6.00 Build 0)  -->
<!DOCTYPE svg PUBLIC "-//W3C//DTD SVG 1.1//EN" "http://www.w3.org/Graphics/SVG/1.1/DTD/svg11.dtd">
<svg version="1.1" id="Capa_1" xmlns="http://www.w3.org/2000/svg" xmlns:xlink="http://www.w3.org/1999/xlink" x="0px" y="0px"
	 width="45.6px" height="50.779px" viewBox="0 0 45.6 50.779" enable-background="new 0 0 45.6 50.779" xml:space="preserve">
<g>
	<path d="M41.345,13.471h-6.283V2.073C35.062,0.928,34.133,0,32.989,0H12.262c-1.145,0-2.073,0.93-2.073,2.073v11.398H4.255
		C1.909,13.471,0,15.331,0,17.617v29.018c0,2.286,1.909,4.146,4.255,4.146h37.089c2.346,0,4.255-1.859,4.255-4.146V17.617
		C45.599,15.33,43.691,13.471,41.345,13.471z M14.334,4.146h16.582v9.325H14.334V4.146z M41.345,46.635H4.146l0.109-29.018h37.198
		l0.011,28.977C41.464,46.594,41.433,46.635,41.345,46.635z"/>
	<path d="M22.799,25.725c-2.289,0-4.146,1.854-4.146,4.145c0,1.53,0.84,2.854,2.073,3.57v4.72h4.146v-4.721
		c1.231-0.719,2.069-2.04,2.069-3.569C26.944,27.581,25.088,25.725,22.799,25.725z"/>
</g>
</svg>
