<?xml version="1.0" encoding="utf-8"?>
<!-- Generator: Adobe Illustrator 16.0.4, SVG Export Plug-In . SVG Version: 6.00 Build 0)  -->
<!DOCTYPE svg PUBLIC "-//W3C//DTD SVG 1.1//EN" "http://www.w3.org/Graphics/SVG/1.1/DTD/svg11.dtd">
<svg version="1.1" id="Capa_1" xmlns="http://www.w3.org/2000/svg" xmlns:xlink="http://www.w3.org/1999/xlink" x="0px" y="0px"
	 width="47.348px" height="41.457px" viewBox="0 0 47.348 41.457" enable-background="new 0 0 47.348 41.457" xml:space="preserve">
<path d="M43.482,4.164L31.927,0.242c-0.467-0.242-1.008-0.31-1.52-0.16L16.575,4.065L4.921,0.11C4.706,0.037,4.481,0,4.255,0
	C1.909,0,0,1.861,0,4.146v29.018c0,2.154,1.699,3.932,3.859,4.127l11.945,4.055l0.018-0.053c0.244,0.098,0.497,0.162,0.76,0.162
	c0.19,0,0.384-0.027,0.571-0.082l13.709-3.947l11.563,3.924c0.214,0.07,0.438,0.107,0.666,0.107c2.344,0,4.251-1.859,4.25-4.146
	l0.004-29.026C47.339,6.132,45.64,4.358,43.482,4.164z M4.145,33.163l0.11-28.901l10.254,3.48v28.783L4.92,33.271
	C4.707,33.2,4.373,33.163,4.145,33.163z M28.909,33.676l-10.257,2.953V7.779l10.257-2.953V33.676z M43.093,37.197l-10.04-3.409
	V5.003l9.37,3.181c0.214,0.073,0.551,0.11,0.779,0.11L43.093,37.197z"/>
</svg>
