<?xml version="1.0" encoding="utf-8"?>
<!-- Generator: Adobe Illustrator 16.0.4, SVG Export Plug-In . SVG Version: 6.00 Build 0)  -->
<!DOCTYPE svg PUBLIC "-//W3C//DTD SVG 1.1//EN" "http://www.w3.org/Graphics/SVG/1.1/DTD/svg11.dtd">
<svg version="1.1" id="Capa_1" xmlns="http://www.w3.org/2000/svg" xmlns:xlink="http://www.w3.org/1999/xlink" x="0px" y="0px"
	 width="45.355px" height="45.125px" viewBox="0 0 45.355 45.125" enable-background="new 0 0 45.355 45.125" xml:space="preserve">
<g>
	<path d="M33.054,29.555c2.36-3.098,3.78-6.95,3.78-11.138C36.838,8.263,28.575,0,18.419,0C8.263,0,0,8.263,0,18.417
		c0,10.157,8.267,18.418,18.419,18.418c4.309,0,8.266-1.496,11.402-3.979l12.27,12.268l3.268-3.27L33.054,29.555z M18.419,32.689
		c-7.87,0-14.271-6.4-14.271-14.271c0-7.87,6.399-14.272,14.271-14.272s14.274,6.401,14.274,14.271S26.289,32.689,18.419,32.689z"/>
	<polygon points="20.49,10.127 16.344,10.127 16.344,16.343 10.128,16.343 10.128,20.489 16.344,20.489 16.344,26.708 20.49,26.708 
		20.49,20.489 26.71,20.489 26.71,16.343 20.49,16.343 	"/>
</g>
</svg>
