<?xml version="1.0" encoding="utf-8"?>
<!-- Generator: Adobe Illustrator 16.0.4, SVG Export Plug-In . SVG Version: 6.00 Build 0)  -->
<!DOCTYPE svg PUBLIC "-//W3C//DTD SVG 1.1//EN" "http://www.w3.org/Graphics/SVG/1.1/DTD/svg11.dtd">
<svg version="1.1" id="Capa_1" xmlns="http://www.w3.org/2000/svg" xmlns:xlink="http://www.w3.org/1999/xlink" x="0px" y="0px"
	 width="45.6px" height="37.309px" viewBox="0 0 45.6 37.309" enable-background="new 0 0 45.6 37.309" xml:space="preserve">
<path d="M41.454,0H4.145C1.859,0,0,1.859,0,4.146v29.02c0,2.286,1.856,4.146,4.146,4.146h37.311c2.281,0,4.146-1.856,4.146-4.145
	V4.146C45.6,1.859,43.738,0,41.454,0z M38.033,4.146L22.799,16.025L7.565,4.146H38.033z M4.145,30.062V6.74l13.104,10.215
	L4.145,30.062z M6.906,33.165l13.639-13.644l0.979,0.768c0.374,0.293,0.826,0.438,1.274,0.438c0.449,0,0.897-0.146,1.271-0.438
	l0.905-0.706l13.584,13.582H6.906z M28.273,17.013L41.453,6.737l0.003,23.456L28.273,17.013z"/>
</svg>
