<?xml version="1.0" encoding="utf-8"?>
<!-- Generator: Adobe Illustrator 16.0.4, SVG Export Plug-In . SVG Version: 6.00 Build 0)  -->
<!DOCTYPE svg PUBLIC "-//W3C//DTD SVG 1.1//EN" "http://www.w3.org/Graphics/SVG/1.1/DTD/svg11.dtd">
<svg version="1.1" id="Capa_1" xmlns="http://www.w3.org/2000/svg" xmlns:xlink="http://www.w3.org/1999/xlink" x="0px" y="0px"
	 width="45.49px" height="43.525px" viewBox="0 0 45.49 43.525" enable-background="new 0 0 45.49 43.525" xml:space="preserve">
<path d="M41.235,0c-0.153,0-0.307,0.018-0.453,0.051L22.746,4.107L4.709,0.051C4.561,0.016,4.407,0,4.255,0C1.87,0,0,2.162,0,4.922
	v29.535c0,2.654,1.729,4.758,3.982,4.914l18.254,4.104c0.151,0.032,0.302,0.051,0.454,0.051c0.019,0,0.037-0.004,0.055-0.005
	c0.019,0.001,0.037,0.005,0.055,0.005c0.152,0,0.303-0.018,0.454-0.051l18.254-4.104c2.253-0.156,3.982-2.261,3.982-4.914V4.922
	C45.49,2.162,43.62,0,41.235,0z M20.617,38.863L4.709,35.287c-0.066-0.015-0.101-0.019-0.134-0.019
	c-0.039,0-0.076,0.005-0.162,0.004c-0.072-0.049-0.268-0.336-0.268-0.815V4.922c0-0.361,0.112-0.614,0.13-0.72l16.342,3.673V38.863z
	 M41.345,34.457c0,0.479-0.197,0.766-0.109,0.777c-0.152,0-0.307,0.017-0.455,0.051l-15.906,3.576V7.875l16.291-3.663
	c0.082,0.132,0.182,0.373,0.182,0.71v29.535H41.345z"/>
</svg>
