<?xml version="1.0" encoding="utf-8"?>
<!-- Generator: Adobe Illustrator 16.0.4, SVG Export Plug-In . SVG Version: 6.00 Build 0)  -->
<!DOCTYPE svg PUBLIC "-//W3C//DTD SVG 1.1//EN" "http://www.w3.org/Graphics/SVG/1.1/DTD/svg11.dtd">
<svg version="1.1" id="Capa_1" xmlns="http://www.w3.org/2000/svg" xmlns:xlink="http://www.w3.org/1999/xlink" x="0px" y="0px"
	 width="45.6px" height="44.562px" viewBox="0 0 45.6 44.562" enable-background="new 0 0 45.6 44.562" xml:space="preserve">
<g>
	<path d="M41.345,7.252h-4.212v-5.18C37.133,0.926,36.206,0,35.061,0H24.698c-1.145,0-2.071,0.926-2.071,2.072v5.18H4.255
		C1.909,7.252,0,9.114,0,11.398v29.018c0,2.285,1.909,4.146,4.255,4.146h37.089c2.346,0,4.255-1.861,4.255-4.146V11.398
		C45.599,9.112,43.691,7.252,41.345,7.252z M26.77,4.146h6.217v3.104h-6.216L26.77,4.146z M41.345,40.416H4.146l0.109-29.018h37.198
		l0.011,28.977C41.464,40.376,41.433,40.416,41.345,40.416z"/>
	<path d="M22.8,16.58c-5.142,0-9.326,4.187-9.326,9.327s4.182,9.327,9.326,9.327c5.142,0,9.326-4.185,9.326-9.327
		C32.126,20.766,27.944,16.58,22.8,16.58z M22.8,31.09c-2.858,0-5.182-2.322-5.182-5.182s2.324-5.182,5.182-5.182
		c2.854,0,5.181,2.323,5.183,5.182C27.983,28.768,25.656,31.09,22.8,31.09z"/>
</g>
</svg>
