<?xml version="1.0" encoding="utf-8"?>
<!-- Generator: Adobe Illustrator 16.0.4, SVG Export Plug-In . SVG Version: 6.00 Build 0)  -->
<!DOCTYPE svg PUBLIC "-//W3C//DTD SVG 1.1//EN" "http://www.w3.org/Graphics/SVG/1.1/DTD/svg11.dtd">
<svg version="1.1" id="Capa_1" xmlns="http://www.w3.org/2000/svg" xmlns:xlink="http://www.w3.org/1999/xlink" x="0px" y="0px"
	 width="45.6px" height="50.188px" viewBox="0 0 45.6 50.188" enable-background="new 0 0 45.6 50.188" xml:space="preserve">
<g>
	<rect x="20.727" y="0" width="4.146" height="16.582"/>
	<path d="M43.807,18.513c-1.148-2.714-2.791-5.152-4.888-7.247c-2.099-2.093-4.532-3.738-7.246-4.884l-1.613,3.817
		c2.218,0.938,4.214,2.282,5.934,3.999c1.713,1.715,3.06,3.71,3.996,5.931c0.973,2.296,1.465,4.739,1.465,7.26
		c0,2.522-0.492,4.964-1.465,7.261c-0.937,2.223-2.283,4.219-3.993,5.932c-1.723,1.716-3.719,3.062-5.937,4
		c-4.59,1.938-9.918,1.942-14.521,0c-2.225-0.942-4.22-2.288-5.933-4c-1.708-1.708-3.055-3.704-3.996-5.935
		c-0.973-2.293-1.468-4.732-1.468-7.258c0-2.522,0.495-4.965,1.468-7.26C6.553,17.9,7.9,15.906,9.61,14.198
		c1.711-1.714,3.706-3.059,5.931-3.999l-1.615-3.817c-2.719,1.153-5.154,2.795-7.241,4.884c-2.093,2.087-3.736,4.526-4.887,7.245
		C0.605,21.319,0,24.306,0,27.389s0.604,6.07,1.795,8.874c1.151,2.722,2.794,5.161,4.885,7.247c2.089,2.09,4.525,3.734,7.244,4.886
		c2.813,1.189,5.803,1.792,8.875,1.792c3.079,0,6.066-0.603,8.874-1.792c2.714-1.146,5.147-2.79,7.249-4.885
		c2.094-2.095,3.737-4.532,4.885-7.247c1.188-2.81,1.791-5.796,1.791-8.875S44.995,21.325,43.807,18.513z"/>
</g>
</svg>
