<?xml version="1.0" encoding="utf-8"?>
<!-- Generator: Adobe Illustrator 16.0.4, SVG Export Plug-In . SVG Version: 6.00 Build 0)  -->
<!DOCTYPE svg PUBLIC "-//W3C//DTD SVG 1.1//EN" "http://www.w3.org/Graphics/SVG/1.1/DTD/svg11.dtd">
<svg version="1.1" id="Capa_1" xmlns="http://www.w3.org/2000/svg" xmlns:xlink="http://www.w3.org/1999/xlink" x="0px" y="0px"
	 width="45.6px" height="47.672px" viewBox="0 0 45.6 47.672" enable-background="new 0 0 45.6 47.672" xml:space="preserve">
<g>
	<path d="M41.345,0H4.255C1.909,0,0,1.859,0,4.146v31.09c0,2.285,1.909,4.145,4.255,4.145H19.69l5.599,7.462
		c0.39,0.522,1.005,0.829,1.655,0.829c0.653,0,1.27-0.307,1.659-0.829l5.598-7.462h7.146c2.346,0,4.254-1.859,4.254-4.145V4.146
		C45.599,1.859,43.691,0,41.345,0z M41.348,35.236h-8.183c-0.652,0-1.268,0.307-1.658,0.828l-4.562,6.082l-4.561-6.082
		c-0.389-0.522-1.005-0.828-1.656-0.828H4.147l0.108-31.09h37.201L41.348,35.236z"/>
	<rect x="8.291" y="9.198" width="29.018" height="4.145"/>
	<rect x="8.291" y="17.488" width="29.018" height="4.146"/>
	<rect x="8.291" y="25.779" width="29.018" height="4.146"/>
</g>
</svg>
