<?xml version="1.0" encoding="utf-8"?>
<!-- Generator: Adobe Illustrator 16.0.4, SVG Export Plug-In . SVG Version: 6.00 Build 0)  -->
<!DOCTYPE svg PUBLIC "-//W3C//DTD SVG 1.1//EN" "http://www.w3.org/Graphics/SVG/1.1/DTD/svg11.dtd">
<svg version="1.1" id="Capa_1" xmlns="http://www.w3.org/2000/svg" xmlns:xlink="http://www.w3.org/1999/xlink" x="0px" y="0px"
	 width="31.939px" height="43.375px" viewBox="0 0 31.939 43.375" enable-background="new 0 0 31.939 43.375" xml:space="preserve">
<path fill="#272425" d="M30.805,0.221c-0.695-0.348-1.533-0.282-2.161,0.178L13.721,11.322H4.255c-1.118,0-2.175,0.42-2.97,1.177
	C0.457,13.286,0,14.341,0,15.468v12.437c0,1.127,0.457,2.182,1.28,2.967c0.8,0.76,1.855,1.18,2.975,1.18h9.468l14.922,10.924
	c0.36,0.265,0.791,0.4,1.224,0.4c0.321,0,0.642-0.076,0.938-0.227c0.694-0.353,1.135-1.066,1.135-1.849V2.07
	C31.94,1.288,31.5,0.575,30.805,0.221z M27.796,37.216l-12.172-8.911c-0.354-0.261-0.783-0.4-1.224-0.4H4.146v-6.217l0.107-6.219
	v-0.001H14.4c0.44,0,0.869-0.138,1.224-0.401l12.172-8.908V37.216z"/>
</svg>
