<?xml version="1.0" encoding="utf-8"?>
<!-- Generator: Adobe Illustrator 16.0.4, SVG Export Plug-In . SVG Version: 6.00 Build 0)  -->
<!DOCTYPE svg PUBLIC "-//W3C//DTD SVG 1.1//EN" "http://www.w3.org/Graphics/SVG/1.1/DTD/svg11.dtd">
<svg version="1.1" id="Capa_1" xmlns="http://www.w3.org/2000/svg" xmlns:xlink="http://www.w3.org/1999/xlink" x="0px" y="0px"
	 width="45.6px" height="52.682px" viewBox="0 0 45.6 52.682" enable-background="new 0 0 45.6 52.682" xml:space="preserve">
<path fill="#272425" d="M41.343,9.155h-8.18V2.072C33.163,0.927,32.235,0,31.09,0H14.508c-1.145,0-2.071,0.927-2.072,2.071v7.083
	H4.254C1.908,9.155,0,11.016,0,13.301v35.234c0,2.284,1.908,4.146,4.254,4.146h37.091c2.345,0,4.255-1.861,4.254-4.146V13.301
	C45.598,11.015,43.689,9.155,41.343,9.155z M16.581,4.146h12.437v5.009H16.581V4.146z M41.344,48.535H4.146l0.107-35.234h8.182
	v8.065c-1.234,0.718-2.073,2.04-2.073,3.572c0,2.291,1.854,4.145,4.146,4.145s4.146-1.854,4.146-4.145
	c0-1.532-0.838-2.854-2.072-3.571v-8.065h12.437v8.065c-1.233,0.718-2.073,2.04-2.073,3.572c0,2.291,1.854,4.145,4.146,4.145
	s4.146-1.854,4.146-4.145c0-1.531-0.838-2.854-2.071-3.571v-8.066h8.291l0.011,35.191C41.465,48.495,41.432,48.535,41.344,48.535z"
	/>
</svg>
