<?xml version="1.0" encoding="utf-8"?>
<!-- Generator: Adobe Illustrator 16.0.4, SVG Export Plug-In . SVG Version: 6.00 Build 0)  -->
<!DOCTYPE svg PUBLIC "-//W3C//DTD SVG 1.1//EN" "http://www.w3.org/Graphics/SVG/1.1/DTD/svg11.dtd">
<svg version="1.1" id="Capa_1" xmlns="http://www.w3.org/2000/svg" xmlns:xlink="http://www.w3.org/1999/xlink" x="0px" y="0px"
	 width="46.089px" height="44.037px" viewBox="0 0 46.089 44.037" enable-background="new 0 0 46.089 44.037" xml:space="preserve">
<path d="M45.99,16.672c-0.279-0.855-1.074-1.434-1.972-1.434H29.5L25.015,1.433C24.737,0.578,23.941,0,23.043,0
	c-0.899,0-1.694,0.578-1.973,1.433l-4.485,13.804H2.073c-0.899,0-1.695,0.579-1.972,1.431c-0.276,0.854,0.026,1.792,0.753,2.318
	l11.739,8.533l-4.48,13.807c-0.278,0.854,0.026,1.787,0.752,2.316c0.366,0.262,0.792,0.396,1.22,0.396
	c0.427,0,0.853-0.134,1.217-0.396l11.74-8.529l11.745,8.529c0.729,0.529,1.711,0.529,2.438,0c0.729-0.527,1.026-1.461,0.753-2.313
	l-4.482-13.806l11.742-8.535C45.964,18.461,46.266,17.524,45.99,16.672z M29.835,25.052c-0.729,0.526-1.028,1.463-0.752,2.315
	l2.979,9.17l-7.801-5.665c-0.364-0.266-0.791-0.396-1.218-0.396c-0.427,0-0.856,0.129-1.22,0.396l-7.799,5.665l2.979-9.17
	c0.277-0.853-0.026-1.789-0.754-2.315L8.45,19.383h9.641c0.9,0,1.695-0.579,1.971-1.434l2.98-9.169l2.98,9.169
	c0.278,0.856,1.074,1.434,1.972,1.434h9.646L29.835,25.052z"/>
</svg>
