<?xml version="1.0" encoding="utf-8"?>
<!-- Generator: Adobe Illustrator 16.0.4, SVG Export Plug-In . SVG Version: 6.00 Build 0)  -->
<!DOCTYPE svg PUBLIC "-//W3C//DTD SVG 1.1//EN" "http://www.w3.org/Graphics/SVG/1.1/DTD/svg11.dtd">
<svg version="1.1" id="Capa_1" xmlns="http://www.w3.org/2000/svg" xmlns:xlink="http://www.w3.org/1999/xlink" x="0px" y="0px"
	 width="33.164px" height="51.471px" viewBox="0 0 33.164 51.471" enable-background="new 0 0 33.164 51.471" xml:space="preserve">
<path d="M29.018,0H4.146C1.859,0,0,1.859,0,4.146v43.181c0,2.284,1.859,4.146,4.146,4.146h24.872c2.287,0,4.146-1.86,4.146-4.144
	V4.146C33.164,1.858,31.305,0,29.018,0z M14.509,45.178c0-1.145,0.927-2.073,2.073-2.073c1.146,0,2.072,0.931,2.072,2.073
	s-0.928,2.073-2.072,2.073C15.436,47.251,14.509,46.321,14.509,45.178z M4.146,39.229V8.291h24.872l0.004,30.938H4.146z"/>
</svg>
