<?xml version="1.0" encoding="utf-8"?>
<!-- Generator: Adobe Illustrator 16.0.4, SVG Export Plug-In . SVG Version: 6.00 Build 0)  -->
<!DOCTYPE svg PUBLIC "-//W3C//DTD SVG 1.1//EN" "http://www.w3.org/Graphics/SVG/1.1/DTD/svg11.dtd">
<svg version="1.1" id="Capa_1" xmlns="http://www.w3.org/2000/svg" xmlns:xlink="http://www.w3.org/1999/xlink" x="0px" y="0px"
	 width="53.895px" height="53.893px" viewBox="0 0 53.895 53.893" enable-background="new 0 0 53.895 53.893" xml:space="preserve">
<g>
	<path d="M53.895,24.829h-4.248C48.638,13.93,39.927,5.233,29.022,4.244V0h-4.146v4.244C13.97,5.232,5.258,13.929,4.25,24.829H0
		v4.146h4.244c0.971,10.939,9.698,19.682,20.632,20.671v4.247h4.146v-4.247c10.936-0.991,19.66-9.73,20.631-20.671h4.242V24.829z
		 M29.022,45.476v-4.021h-4.146v4.021C16.23,44.515,9.353,37.627,8.411,28.975h4.025v-4.146H8.424
		c0.978-8.611,7.835-15.458,16.453-16.416v4.022h4.146V8.414c8.617,0.958,15.476,7.805,16.451,16.416h-4.015v4.146h4.026
		C44.544,37.626,37.667,44.514,29.022,45.476z"/>
	<circle cx="26.949" cy="26.902" r="6.218"/>
</g>
</svg>
