<?xml version="1.0" encoding="utf-8"?>
<!-- Generator: Adobe Illustrator 16.0.4, SVG Export Plug-In . SVG Version: 6.00 Build 0)  -->
<!DOCTYPE svg PUBLIC "-//W3C//DTD SVG 1.1//EN" "http://www.w3.org/Graphics/SVG/1.1/DTD/svg11.dtd">
<svg version="1.1" id="Capa_1" xmlns="http://www.w3.org/2000/svg" xmlns:xlink="http://www.w3.org/1999/xlink" x="0px" y="0px"
	 width="45.469px" height="50.003px" viewBox="0 0 45.469 50.003" enable-background="new 0 0 45.469 50.003" xml:space="preserve">
<g>
	<rect x="8.291" y="10.493" width="18.651" height="4.145"/>
	<rect x="8.291" y="18.784" width="29.018" height="4.146"/>
	<rect x="8.291" y="27.074" width="29.018" height="4.146"/>
	<rect x="8.291" y="35.365" width="29.018" height="4.146"/>
	<path d="M44.862,6.22L39.25,0.607C38.861,0.218,38.335,0,37.785,0H4.146C1.859,0,0,1.859,0,4.146v41.712
		c0,2.286,1.857,4.146,4.146,4.146h37.18c2.284,0,4.145-1.858,4.145-4.146V7.685C45.469,7.136,45.252,6.608,44.862,6.22z
		 M4.146,45.858V4.146l26.751-0.001v8.421c0,1.144,0.931,2.072,2.073,2.072h8.355l0.003,31.22H4.146z"/>
</g>
</svg>
