<?xml version="1.0" encoding="utf-8"?>
<!-- Generator: Adobe Illustrator 16.0.4, SVG Export Plug-In . SVG Version: 6.00 Build 0)  -->
<!DOCTYPE svg PUBLIC "-//W3C//DTD SVG 1.1//EN" "http://www.w3.org/Graphics/SVG/1.1/DTD/svg11.dtd">
<svg version="1.1" id="Capa_1" xmlns="http://www.w3.org/2000/svg" xmlns:xlink="http://www.w3.org/1999/xlink" x="0px" y="0px"
	 width="41.454px" height="47.671px" viewBox="0 0 41.454 47.671" enable-background="new 0 0 41.454 47.671" xml:space="preserve">
<g>
	<path d="M37.2,0H4.255C1.91,0,0,1.86,0,4.146v6.216c0,2.249,1.853,4.078,4.146,4.135c0,0.003-0.001,0.007-0.001,0.011v29.017
		c0,2.286,1.909,4.146,4.255,4.146h24.654c2.346,0,4.255-1.86,4.254-4.146V14.508c0-0.003-0.001-0.007-0.001-0.011
		c2.295-0.057,4.146-1.886,4.146-4.134V4.146C41.454,1.86,39.545,0,37.2,0z M33.054,43.525H8.291L8.4,14.508h24.763l0.012,28.974
		C33.174,43.482,33.141,43.525,33.054,43.525z M37.2,10.363h-4.137c-0.003,0-0.006-0.001-0.01-0.001H8.4
		c-0.003,0-0.006,0.001-0.01,0.001H4.146l0.109-6.217h33.054l0.01,6.176C37.319,10.322,37.288,10.363,37.2,10.363z"/>
	<rect x="14.51" y="19.689" width="4.145" height="18.654"/>
	<rect x="22.799" y="19.689" width="4.146" height="18.654"/>
</g>
</svg>
