<?xml version="1.0" encoding="utf-8"?>
<!-- Generator: Adobe Illustrator 16.0.4, SVG Export Plug-In . SVG Version: 6.00 Build 0)  -->
<!DOCTYPE svg PUBLIC "-//W3C//DTD SVG 1.1//EN" "http://www.w3.org/Graphics/SVG/1.1/DTD/svg11.dtd">
<svg version="1.1" id="Capa_1" xmlns="http://www.w3.org/2000/svg" xmlns:xlink="http://www.w3.org/1999/xlink" x="0px" y="0px"
	 width="45.6px" height="47.628px" viewBox="0 0 45.6 47.628" enable-background="new 0 0 45.6 47.628" xml:space="preserve">
<g>
	<polygon points="20.726,37.266 24.872,37.266 24.872,9.327 31.09,9.327 22.799,0 14.508,9.327 20.726,9.327 	"/>
	<path d="M45.244,21.1c-0.224-0.498-0.538-0.94-0.932-1.31c-0.387-0.369-0.838-0.66-1.348-0.867
		c-0.516-0.208-1.062-0.313-1.625-0.313H32.07v4.146h9.384v19.69l-0.109,1.037H4.146V30.009l0.108-7.253h9.271V18.61H4.253
		c-0.562,0-1.109,0.105-1.63,0.315c-0.503,0.205-0.955,0.496-1.334,0.858c-0.398,0.377-0.714,0.82-0.942,1.33
		C0.116,21.634,0,22.187,0,22.756v20.727c0,0.569,0.116,1.121,0.352,1.656c0.224,0.495,0.538,0.94,0.932,1.31
		c0.387,0.368,0.838,0.659,1.347,0.865c0.517,0.209,1.062,0.314,1.625,0.314h37.09c0.563,0,1.109-0.105,1.63-0.316
		c0.504-0.204,0.956-0.495,1.335-0.857c0.398-0.375,0.713-0.82,0.942-1.33c0.229-0.521,0.347-1.074,0.347-1.642V22.756
		C45.598,22.186,45.48,21.634,45.244,21.1z"/>
</g>
</svg>
