<?xml version="1.0" encoding="utf-8"?>
<!-- Generator: Adobe Illustrator 16.0.4, SVG Export Plug-In . SVG Version: 6.00 Build 0)  -->
<!DOCTYPE svg PUBLIC "-//W3C//DTD SVG 1.1//EN" "http://www.w3.org/Graphics/SVG/1.1/DTD/svg11.dtd">
<svg version="1.1" id="Capa_1" xmlns="http://www.w3.org/2000/svg" xmlns:xlink="http://www.w3.org/1999/xlink" x="0px" y="0px"
	 width="30.398px" height="43.375px" viewBox="0 0 30.398 43.375" enable-background="new 0 0 30.398 43.375" xml:space="preserve">
<path d="M24.505,23.188c2.562-2.453,4.165-5.896,4.165-9.714C28.67,6.044,22.627,0,15.197,0C7.77,0,1.725,6.043,1.725,13.472
	c0,3.819,1.604,7.265,4.167,9.717C3.286,25.496,0,30.535,0,41.305c0,1.146,0.931,2.07,2.074,2.07h13.123V39.23H4.192
	c0.435-9.604,3.873-12.703,5.286-13.58c1.738,0.82,3.672,1.293,5.719,1.293c2.048,0,3.982-0.473,5.722-1.293
	c1.413,0.875,4.854,3.974,5.287,13.58H15.202v4.145h13.124c1.146,0,2.072-0.925,2.072-2.072
	C30.398,30.533,27.111,25.494,24.505,23.188z M5.871,13.473c0-5.143,4.185-9.327,9.326-9.327c5.144,0,9.327,4.183,9.327,9.327
	c0,5.142-4.185,9.326-9.327,9.326C10.056,22.799,5.871,18.616,5.871,13.473z"/>
</svg>
