<?xml version="1.0" encoding="utf-8"?>
<!-- Generator: Adobe Illustrator 16.0.4, SVG Export Plug-In . SVG Version: 6.00 Build 0)  -->
<!DOCTYPE svg PUBLIC "-//W3C//DTD SVG 1.1//EN" "http://www.w3.org/Graphics/SVG/1.1/DTD/svg11.dtd">
<svg version="1.1" id="Capa_1" xmlns="http://www.w3.org/2000/svg" xmlns:xlink="http://www.w3.org/1999/xlink" x="0px" y="0px"
	 width="45.355px" height="45.125px" viewBox="0 0 45.355 45.125" enable-background="new 0 0 45.355 45.125" xml:space="preserve">
<g>
	<path d="M33.054,29.555c2.359-3.098,3.78-6.951,3.78-11.138C36.838,8.263,28.575,0,18.419,0C8.261,0,0,8.263,0,18.417
		c0,10.157,8.265,18.418,18.419,18.418c4.309,0,8.265-1.496,11.401-3.979l12.268,12.27l3.269-3.27L33.054,29.555z M18.419,32.689
		c-7.87,0-14.271-6.4-14.271-14.271c0-7.87,6.401-14.272,14.271-14.272c7.869,0,14.273,6.401,14.273,14.271
		S26.288,32.689,18.419,32.689z"/>
	<rect x="10.128" y="16.343" width="16.581" height="4.146"/>
</g>
</svg>
